<?xml version="1.0" encoding="iso-8859-1"?>
<!-- Uploaded to: SVG Repo, www.svgrepo.com, Generator: SVG Repo Mixer Tools -->
<svg fill="#000000" height="800px" width="800px" version="1.1" id="Layer_1" xmlns="http://www.w3.org/2000/svg" xmlns:xlink="http://www.w3.org/1999/xlink" 
	 viewBox="0 0 512 512" xml:space="preserve">
<g>
	<g>
		<g>
			<path d="M287.245,315.851c0,20.55,16.719,37.268,37.268,37.268s37.268-16.719,37.268-37.268s-16.719-37.268-37.268-37.268
				S287.245,295.301,287.245,315.851z M324.513,294.669c11.68,0,21.181,9.501,21.181,21.181s-9.501,21.181-21.181,21.181
				s-21.181-9.501-21.181-21.181S312.834,294.669,324.513,294.669z"/>
			<path d="M186.906,353.119c20.55,0,37.268-16.719,37.268-37.268s-16.719-37.268-37.268-37.268
				c-20.55,0-37.268,16.719-37.268,37.268S166.357,353.119,186.906,353.119z M186.906,294.669c11.68,0,21.181,9.501,21.181,21.181
				s-9.501,21.181-21.181,21.181c-11.68,0-21.181-9.501-21.181-21.181S175.226,294.669,186.906,294.669z"/>
			<path d="M368.342,203.714c11.363,0,20.608-9.244,20.608-20.607c0-11.362-9.245-20.605-20.608-20.605
				c-11.362,0-20.605,9.244-20.605,20.605C347.737,194.47,356.98,203.714,368.342,203.714z M368.342,178.589
				c2.492,0,4.52,2.027,4.52,4.518c0,2.492-2.028,4.519-4.52,4.519c-2.491,0-4.518-2.027-4.518-4.519
				C363.824,180.616,365.85,178.589,368.342,178.589z"/>
			<path d="M388.95,251.893c0-11.362-9.245-20.605-20.608-20.605c-11.362,0-20.605,9.244-20.605,20.605
				c0,11.362,9.244,20.605,20.605,20.605C379.704,272.498,388.95,263.254,388.95,251.893z M363.824,251.893
				c0-2.491,2.027-4.518,4.518-4.518c2.492,0,4.52,2.027,4.52,4.518c0,2.491-2.028,4.518-4.52,4.518
				S363.824,254.384,363.824,251.893z"/>
			<path d="M313.344,217.5c0,11.362,9.244,20.605,20.607,20.605c11.362,0,20.605-9.244,20.605-20.605
				c0-11.362-9.244-20.605-20.605-20.605C322.588,196.894,313.344,206.138,313.344,217.5z M338.468,217.5
				c0,2.491-2.027,4.518-4.518,4.518c-2.491,0-4.519-2.027-4.519-4.518c0-2.491,2.028-4.518,4.519-4.518
				C336.441,212.982,338.468,215.008,338.468,217.5z"/>
			<path d="M423.341,217.5c0-11.362-9.244-20.605-20.605-20.605c-11.363,0-20.608,9.244-20.608,20.605
				c0,11.362,9.245,20.605,20.608,20.605C414.097,238.106,423.341,228.862,423.341,217.5z M398.215,217.5
				c0-2.491,2.028-4.518,4.52-4.518c2.491,0,4.518,2.027,4.518,4.518c0,2.491-2.027,4.518-4.518,4.518
				C400.243,222.019,398.215,219.992,398.215,217.5z"/>
			<path d="M136.559,261.477h16.301c5.78,0,10.481-4.702,10.481-10.48v-14.865h14.863c5.78,0,10.481-4.702,10.481-10.481v-16.301
				c0-5.78-4.703-10.481-10.481-10.481h-14.863v-14.863c0-5.78-4.703-10.481-10.481-10.481h-16.301
				c-5.78,0-10.481,4.702-10.481,10.481v14.863h-14.863c-5.78,0-10.481,4.702-10.481,10.481v16.301
				c0,5.78,4.703,10.481,10.481,10.481h14.863v14.865C126.077,256.775,130.78,261.477,136.559,261.477z M116.818,220.044v-5.09
				h17.302c4.443,0,8.044-3.601,8.044-8.044V189.61h5.09v17.301c0,4.442,3.6,8.044,8.044,8.044H172.6v5.09h-17.302
				c-4.443,0-8.044,3.601-8.044,8.044v17.302h-5.09v-17.302c0-4.442-3.6-8.044-8.044-8.044H116.818z"/>
			<path d="M511.506,336.532c-2.588-32.668-15.12-71.505-35.283-109.358c-2.086-3.921-6.958-5.405-10.881-3.318
				c-3.92,2.089-5.405,6.96-3.317,10.881c37.85,71.055,45.088,142.554,16.134,159.385c-21.637,12.569-61.412-7.737-98.993-50.532
				c-1.527-1.739-3.73-2.736-6.044-2.736h-2.471c-2.515,0-4.884,1.175-6.405,3.178c-9.531,12.545-24.014,19.74-39.733,19.74
				s-30.202-7.195-39.733-19.74c-1.521-2.002-3.89-3.178-6.405-3.178H234.19c-2.515,0-4.884,1.177-6.406,3.178
				c-9.53,12.545-24.012,19.74-39.732,19.74c-15.718,0-30.201-7.195-39.733-19.74c-1.521-2.002-3.891-3.178-6.405-3.178h-3.031
				c-2.314,0-4.517,0.997-6.044,2.736c-37.582,42.795-77.364,63.108-98.992,50.532C6.125,378.007,8.702,305.248,56.727,222.623
				c14.937-25.699,32.634-49.06,51.178-67.559c1.512-1.509,2.363-3.557,2.363-5.695V128.09c0-7.678,6.247-13.925,13.925-13.925
				h33.012c16.698,0,18.341,9.545,18.441,12.527v15.948c0,4.442,3.6,8.044,8.044,8.044h39.602v16.183c0,4.442,3.6,8.044,8.044,8.044
				h49.334c4.443,0,8.044-3.601,8.044-8.044v-16.183h39.602c4.443,0,8.044-3.601,8.044-8.044v-16.042
				c0-0.042,0.197-4.424,3.55-7.786c3.073-3.082,8.083-4.646,14.891-4.646h33.013c7.678,0,13.924,6.247,13.924,13.925v21.278
				c0,2.136,0.85,4.186,2.363,5.695c16.268,16.228,32.085,36.457,45.742,58.501c2.342,3.776,7.299,4.94,11.074,2.601
				c3.776-2.34,4.94-7.297,2.602-11.073c-13.646-22.024-29.396-42.366-45.694-59.032v-17.97c0-16.548-13.464-30.012-30.011-30.012
				H354.8c-11.238,0-20.082,3.154-26.284,9.375c-8.044,8.067-8.246,18.078-8.244,19.168v7.975H280.67h-49.334h-39.602v-7.951
				c0.003-1.115-0.201-11.125-8.244-19.192c-6.202-6.22-15.046-9.374-26.285-9.374h-33.012c-16.549,0-30.012,13.464-30.012,30.012
				v17.97c-18.655,19.071-36.365,42.676-51.363,68.477C19.742,254.241,4.889,295.692,1,331.253
				c-4.138,37.823,4.658,65.088,24.766,76.777c6.817,3.962,14.51,5.892,22.861,5.892c26.358-0.001,59.247-19.235,91.657-54.542
				c12.413,13.097,29.455,20.478,47.771,20.478c19.426,0,37.42-8.302,49.975-22.918h36.51
				c12.557,14.616,30.549,22.918,49.975,22.918c18.176,0,35.1-7.269,47.486-20.179c32.322,35.118,65.096,54.244,91.38,54.241
				c8.349-0.001,16.046-1.932,22.862-5.892C505.309,396.948,514.281,371.555,511.506,336.532z M239.38,150.683h33.247v8.139H239.38
				V150.683z"/>
			<path d="M244.207,307.807c-4.443,0-8.044,3.6-8.044,8.044c0,4.443,3.6,8.044,8.044,8.044h23.594c4.443,0,8.044-3.6,8.044-8.044
				c0-4.443-3.6-8.044-8.044-8.044H244.207z"/>
		</g>
	</g>
</g>
</svg>